<?xml version="1.0" encoding="UTF-8" standalone="no"?>
<!DOCTYPE svg PUBLIC "-//W3C//DTD SVG 1.1//EN" "http://www.w3.org/Graphics/SVG/1.1/DTD/svg11.dtd">
<svg width="100%" height="100%" viewBox="0 0 44 68" version="1.1" xmlns="http://www.w3.org/2000/svg" xmlns:xlink="http://www.w3.org/1999/xlink" xml:space="preserve" xmlns:serif="http://www.serif.com/" style="fill-rule:evenodd;clip-rule:evenodd;stroke-linecap:round;stroke-linejoin:round;stroke-miterlimit:1.5;">
    <g id="Artboard1" transform="matrix(0.272923,0,0,0.488751,-35.8044,-70.3439)">
        <rect x="131.189" y="143.926" width="161.215" height="138.112" style="fill:none;"/>
        <g transform="matrix(4.26809,0,0,2.38334,-3690.41,-1103.45)">
            <g transform="matrix(0.24906,0,0,0.24906,698.35,417.888)">
                <circle cx="866.816" cy="580.651" r="71.656" style="fill:none;"/>
                <clipPath id="_clip1">
                    <circle cx="866.816" cy="580.651" r="71.656"/>
                </clipPath>
                <g clip-path="url(#_clip1)">
                    <g transform="matrix(1.39804,0,0,1.20818,-926.805,-452.517)">
                        <g transform="matrix(1,0,0,1,211.135,265.06)">
                            <rect x="1010.75" y="530.774" width="122.122" height="23.724"/>
                        </g>
                        <g transform="matrix(1,0,0,1,211.135,288.783)">
                            <rect x="1010.75" y="530.774" width="122.122" height="23.724" style="fill:rgb(223,202,21);"/>
                        </g>
                        <g transform="matrix(1,0,0,1,211.135,336.23)">
                            <rect x="1010.75" y="530.774" width="122.122" height="23.724" style="fill:rgb(223,202,21);"/>
                        </g>
                        <g transform="matrix(1,0,0,1,211.135,312.507)">
                            <rect x="1010.75" y="530.774" width="122.122" height="23.724"/>
                        </g>
                        <g transform="matrix(1,0,0,1,211.135,359.954)">
                            <rect x="1010.75" y="530.774" width="122.122" height="23.724"/>
                        </g>
                    </g>
                </g>
                <circle cx="866.816" cy="580.651" r="71.656" style="fill:none;stroke:black;stroke-width:6.88px;"/>
            </g>
            <g transform="matrix(0.0480062,0,0,0.0480062,865.952,510.16)">
                <g>
                    <circle cx="866.816" cy="580.651" r="71.656"/>
                </g>
            </g>
            <g transform="matrix(0.044347,0,0,0.044347,884.425,513.705)">
                <g>
                    <circle cx="866.816" cy="580.651" r="71.656"/>
                </g>
            </g>
            <g transform="matrix(0.0265455,0,0,0.0265455,899.798,516.029)">
                <g>
                    <circle cx="866.816" cy="580.651" r="71.656"/>
                </g>
            </g>
            <g transform="matrix(0.0333334,0,0,0.0333334,887.734,514.534)">
                <g>
                    <circle cx="866.816" cy="580.651" r="71.656"/>
                </g>
            </g>
            <g transform="matrix(0.0279158,0,0,0.0279158,890.041,509.377)">
                <circle cx="866.816" cy="580.651" r="71.656"/>
            </g>
        </g>
    </g>
</svg>
