<?xml version="1.0" encoding="UTF-8" standalone="no"?>
<!DOCTYPE svg PUBLIC "-//W3C//DTD SVG 1.1//EN" "http://www.w3.org/Graphics/SVG/1.1/DTD/svg11.dtd">
<svg width="100%" height="100%" viewBox="0 0 236 77" version="1.1" xmlns="http://www.w3.org/2000/svg" xmlns:xlink="http://www.w3.org/1999/xlink" xml:space="preserve" xmlns:serif="http://www.serif.com/" style="fill-rule:evenodd;clip-rule:evenodd;stroke-linecap:round;stroke-linejoin:round;stroke-miterlimit:1.5;">
    <g id="Artboard1" transform="matrix(1.46138,0,0,0.555154,-191.716,-79.9009)">
        <rect x="131.189" y="143.926" width="161.215" height="138.112" style="fill:none;"/>
        <g transform="matrix(0.797097,0,0,2.09827,-451.396,-954.249)">
            <g transform="matrix(0.24906,0,0,0.24906,698.35,417.888)">
                <circle cx="866.816" cy="580.651" r="71.656" style="fill:none;"/>
                <clipPath id="_clip1">
                    <circle cx="866.816" cy="580.651" r="71.656"/>
                </clipPath>
                <g clip-path="url(#_clip1)">
                    <g transform="matrix(1.39804,0,0,1.20818,-926.805,-452.517)">
                        <g transform="matrix(1,0,0,1,211.135,265.06)">
                            <rect x="1010.75" y="530.774" width="122.122" height="23.724"/>
                        </g>
                        <g transform="matrix(1,0,0,1,211.135,288.783)">
                            <rect x="1010.75" y="530.774" width="122.122" height="23.724" style="fill:rgb(223,202,21);"/>
                        </g>
                        <g transform="matrix(1,0,0,1,211.135,336.23)">
                            <rect x="1010.75" y="530.774" width="122.122" height="23.724" style="fill:rgb(223,202,21);"/>
                        </g>
                        <g transform="matrix(1,0,0,1,211.135,312.507)">
                            <rect x="1010.75" y="530.774" width="122.122" height="23.724"/>
                        </g>
                        <g transform="matrix(1,0,0,1,211.135,359.954)">
                            <rect x="1010.75" y="530.774" width="122.122" height="23.724"/>
                        </g>
                    </g>
                </g>
                <circle cx="866.816" cy="580.651" r="71.656" style="fill:none;stroke:black;stroke-width:6.88px;"/>
            </g>
            <g transform="matrix(0.0480062,0,0,0.0480062,865.952,510.16)">
                <g>
                    <circle cx="866.816" cy="580.651" r="71.656"/>
                </g>
            </g>
            <g transform="matrix(0.044347,0,0,0.044347,884.425,513.705)">
                <g>
                    <circle cx="866.816" cy="580.651" r="71.656"/>
                </g>
            </g>
            <g transform="matrix(0.0265455,0,0,0.0265455,899.798,516.029)">
                <g>
                    <circle cx="866.816" cy="580.651" r="71.656"/>
                </g>
            </g>
            <g transform="matrix(0.0333334,0,0,0.0333334,887.734,514.534)">
                <g>
                    <circle cx="866.816" cy="580.651" r="71.656"/>
                </g>
            </g>
            <g transform="matrix(0.0279158,0,0,0.0279158,890.041,509.377)">
                <circle cx="866.816" cy="580.651" r="71.656"/>
            </g>
        </g>
        <g transform="matrix(1.21965,0,0,1.46916,-37.2367,-67.524)">
            <g transform="matrix(0.5153,0,0,1.1261,-196.087,-239.759)">
                <path d="M677.158,380.874L674.327,380.954C671.505,380.958 668.643,381.408 665.742,382.313C662.812,383.227 660.248,384.471 658.044,386.03C658.039,386.033 658.035,386.036 658.03,386.04C655.355,387.959 653.281,390.254 651.796,392.911C650.268,395.644 649.51,398.512 649.51,401.511C649.51,405.541 650.884,408.871 653.584,411.521C656.266,414.154 659.637,415.5 663.72,415.5C671.114,415.5 676.876,411.087 680.648,401.825L684.75,391.697L688.085,391.697C689.852,391.697 691.326,391.121 692.526,390.027C693.82,388.846 694.457,387.398 694.457,385.691C694.457,384.04 693.858,382.849 692.895,382.023C692.067,381.314 690.864,380.832 689.208,380.832L689.166,380.832L690.849,376.706L700.243,376.706C701.982,376.706 703.45,376.139 704.662,375.046C705.982,373.854 706.615,372.414 706.615,370.749C706.615,369.381 706.161,368.311 705.385,367.49C704.48,366.534 702.968,365.842 700.707,365.842C700.707,365.842 688.182,365.842 688.182,365.842C686.216,365.842 684.839,366.199 684.007,366.679C683.035,367.241 682.119,368.284 681.487,369.976C681.488,369.971 681.229,370.631 681.229,370.631L677.158,380.874ZM685.424,383.347L689.208,383.347C691.031,383.347 691.942,384.128 691.942,385.691C691.942,386.667 691.572,387.493 690.831,388.169C690.091,388.844 689.175,389.182 688.085,389.182L683.056,389.182L678.319,400.876C675.031,408.949 670.165,412.986 663.72,412.986C660.35,412.986 657.559,411.899 655.346,409.726C653.132,407.553 652.025,404.815 652.025,401.511C652.025,398.939 652.68,396.482 653.991,394.138C655.301,391.794 657.136,389.776 659.496,388.083C661.498,386.667 663.829,385.544 666.491,384.714C669.152,383.884 671.776,383.469 674.364,383.469L677.807,383.371L678.881,383.347L683.568,371.555L683.837,370.871C684.211,369.862 684.687,369.191 685.265,368.857C685.843,368.523 686.815,368.357 688.182,368.357L700.707,368.357C702.969,368.357 704.1,369.154 704.1,370.749C704.1,371.693 703.726,372.503 702.977,373.178C702.229,373.854 701.317,374.192 700.243,374.192L689.159,374.192L685.424,383.347ZM676.513,389.182L675.194,389.182C670.377,389.182 666.527,390.28 663.646,392.478C660.424,394.935 658.812,397.71 658.812,400.803C658.812,402.463 659.321,403.855 660.338,404.978C661.356,406.101 662.621,406.662 664.135,406.662C667.65,406.662 670.539,403.871 672.802,398.288L676.513,389.182ZM672.726,391.81L670.471,397.344C669.5,399.741 668.431,401.562 667.191,402.76C666.266,403.654 665.261,404.148 664.135,404.148C663.364,404.148 662.72,403.861 662.202,403.289C661.599,402.623 661.327,401.787 661.327,400.803C661.327,398.425 662.693,396.367 665.171,394.477C665.171,394.477 665.171,394.477 665.171,394.477C667.154,392.965 669.679,392.101 672.726,391.81Z"/>
                <path d="M696.889,381.56C695.903,382.27 695.099,383.344 694.5,384.816L694.225,385.514C694.225,385.514 690.202,395.413 690.202,395.413C689.707,396.615 689.505,397.625 689.505,398.41C689.505,400.283 690.267,401.763 691.793,402.851C692.975,403.693 694.574,404.197 696.634,404.197L700.516,404.197C702.483,404.197 703.987,403.686 705.082,402.85C706.436,401.815 707.156,400.389 707.156,398.532C707.156,397.224 706.719,396.201 705.978,395.416C705.258,394.652 704.132,394.059 702.515,393.892L704.629,388.66C705.237,387.171 705.472,386.047 705.472,385.324C705.472,384.725 705.372,384.161 705.169,383.635C705.537,383.402 705.885,383.121 706.212,382.794C707.359,381.646 707.938,380.253 707.938,378.611C707.938,376.968 707.359,375.575 706.212,374.428C705.065,373.28 703.672,372.702 702.029,372.702C700.386,372.702 698.993,373.28 697.846,374.428C696.699,375.575 696.121,376.968 696.121,378.611C696.121,379.704 696.377,380.687 696.889,381.56ZM698.807,396.36L701.565,396.36C703.616,396.36 704.641,397.084 704.641,398.532C704.641,399.525 704.279,400.298 703.555,400.852C702.831,401.405 701.818,401.682 700.516,401.682L696.634,401.682C695.201,401.682 694.074,401.389 693.252,400.803C692.43,400.217 692.019,399.419 692.019,398.41C692.019,397.873 692.19,397.19 692.532,396.36L696.56,386.447L696.829,385.764C697.578,383.925 698.782,383.005 700.442,383.005C701.126,383.005 701.716,383.233 702.212,383.689C702.709,384.144 702.957,384.69 702.957,385.324C702.957,385.845 702.737,386.643 702.298,387.717L698.807,396.36ZM702.029,375.217C702.973,375.217 703.775,375.547 704.434,376.206C705.093,376.865 705.423,377.667 705.423,378.611C705.423,379.555 705.093,380.356 704.434,381.015C703.775,381.675 702.973,382.004 702.029,382.004C701.085,382.004 700.284,381.675 699.624,381.015C698.965,380.356 698.636,379.555 698.636,378.611C698.636,377.667 698.965,376.865 699.624,376.206C700.284,375.547 701.085,375.217 702.029,375.217Z"/>
                <path d="M708.88,390.49L704.99,394.237C703.249,395.926 702.591,397.549 702.591,398.874C702.591,400.552 703.213,401.861 704.369,402.842C705.371,403.693 706.698,404.197 708.401,404.197L719.778,404.197C721.746,404.197 723.25,403.686 724.345,402.85C725.699,401.815 726.419,400.389 726.419,398.532C726.419,397.224 725.982,396.201 725.241,395.416C724.397,394.521 722.995,393.86 720.901,393.846L724.179,390.681C725.794,389.092 726.468,387.45 726.468,385.886C726.468,384.053 725.812,382.725 724.732,381.808C723.796,381.014 722.431,380.49 720.559,380.49L712.356,380.49C710.684,380.49 709.276,381.033 708.115,382.071C706.849,383.205 706.228,384.603 706.228,386.252C706.228,387.867 706.829,389.032 707.807,389.839C708.111,390.09 708.467,390.312 708.88,390.49ZM714.676,396.36L720.828,396.36C722.879,396.36 723.904,397.084 723.904,398.532C723.904,399.525 723.542,400.298 722.818,400.852C722.093,401.405 721.08,401.682 719.778,401.682L708.401,401.682C707.392,401.682 706.591,401.43 705.996,400.925C705.402,400.42 705.105,399.737 705.105,398.874C705.105,398.044 705.651,397.1 706.741,396.042L714.724,388.352L712.015,388.449L711.404,388.449C709.63,388.449 708.743,387.717 708.743,386.252C708.743,385.341 709.093,384.572 709.793,383.945C710.493,383.318 711.347,383.005 712.356,383.005L720.559,383.005C722.822,383.005 723.953,383.965 723.953,385.886C723.953,386.879 723.44,387.88 722.415,388.889L714.676,396.36Z"/>
                <path d="M728.386,390.49L724.497,394.237C722.756,395.926 722.097,397.549 722.097,398.874C722.097,400.552 722.72,401.861 723.875,402.842C724.878,403.693 726.205,404.197 727.908,404.197L739.285,404.197C741.252,404.197 742.757,403.686 743.851,402.85C745.206,401.815 745.926,400.389 745.926,398.532C745.926,397.224 745.489,396.201 744.748,395.416C743.903,394.521 742.502,393.86 740.408,393.846L743.686,390.681C745.301,389.092 745.975,387.45 745.975,385.886C745.975,384.053 745.319,382.725 744.239,381.808C743.303,381.014 741.938,380.49 740.066,380.49L731.863,380.49C730.19,380.49 728.782,381.033 727.622,382.071C726.356,383.205 725.735,384.603 725.735,386.252C725.735,387.867 726.336,389.032 727.314,389.839C727.618,390.09 727.974,390.312 728.386,390.49ZM734.182,396.36L740.335,396.36C742.386,396.36 743.411,397.084 743.411,398.532C743.411,399.525 743.049,400.298 742.325,400.852C741.6,401.405 740.587,401.682 739.285,401.682L727.908,401.682C726.899,401.682 726.097,401.43 725.503,400.925C724.909,400.42 724.612,399.737 724.612,398.874C724.612,398.044 725.157,397.1 726.248,396.042L734.231,388.352L731.521,388.449L730.911,388.449C729.137,388.449 728.25,387.717 728.25,386.252C728.25,385.341 728.6,384.572 729.3,383.945C730,383.318 730.854,383.005 731.863,383.005L740.066,383.005C742.329,383.005 743.46,383.965 743.46,385.886C743.46,386.879 742.947,387.88 741.922,388.889L734.182,396.36Z"/>
            </g>
            <g transform="matrix(0.5153,0,0,1.1261,-196.087,-239.759)">
                <path d="M685.424,383.347L689.208,383.347C691.031,383.347 691.942,384.128 691.942,385.691C691.942,386.667 691.572,387.493 690.831,388.169C690.091,388.844 689.175,389.182 688.085,389.182L683.056,389.182L678.319,400.876C675.031,408.949 670.165,412.986 663.72,412.986C660.35,412.986 657.559,411.899 655.346,409.726C653.132,407.553 652.025,404.815 652.025,401.511C652.025,398.939 652.68,396.482 653.991,394.138C655.301,391.794 657.136,389.776 659.496,388.083C661.498,386.667 663.829,385.544 666.491,384.714C669.152,383.884 671.776,383.469 674.364,383.469L677.807,383.371L678.881,383.347L683.568,371.555L683.837,370.871C684.211,369.862 684.687,369.191 685.265,368.857C685.843,368.523 686.815,368.357 688.182,368.357L700.707,368.357C702.969,368.357 704.1,369.154 704.1,370.749C704.1,371.693 703.726,372.503 702.977,373.178C702.229,373.854 701.317,374.192 700.243,374.192L689.159,374.192L685.424,383.347ZM676.513,389.182L675.194,389.182C670.377,389.182 666.527,390.28 663.646,392.478C660.424,394.935 658.812,397.71 658.812,400.803C658.812,402.463 659.321,403.855 660.338,404.978C661.356,406.101 662.621,406.662 664.135,406.662C667.65,406.662 670.539,403.871 672.802,398.288L676.513,389.182Z" style="fill:rgb(223,202,21);fill-rule:nonzero;"/>
                <path d="M698.807,396.36L701.565,396.36C703.616,396.36 704.641,397.084 704.641,398.532C704.641,399.525 704.279,400.298 703.555,400.852C702.831,401.405 701.818,401.682 700.516,401.682L696.634,401.682C695.201,401.682 694.074,401.389 693.252,400.803C692.43,400.217 692.019,399.419 692.019,398.41C692.019,397.873 692.19,397.19 692.532,396.36L696.56,386.447L696.829,385.764C697.578,383.925 698.782,383.005 700.442,383.005C701.126,383.005 701.716,383.233 702.212,383.689C702.709,384.144 702.957,384.69 702.957,385.324C702.957,385.845 702.737,386.643 702.298,387.717L698.807,396.36ZM702.029,375.217C702.973,375.217 703.775,375.547 704.434,376.206C705.093,376.865 705.423,377.667 705.423,378.611C705.423,379.555 705.093,380.356 704.434,381.015C703.775,381.675 702.973,382.004 702.029,382.004C701.085,382.004 700.284,381.675 699.624,381.015C698.965,380.356 698.636,379.555 698.636,378.611C698.636,377.667 698.965,376.865 699.624,376.206C700.284,375.547 701.085,375.217 702.029,375.217Z" style="fill:rgb(223,202,21);fill-rule:nonzero;"/>
                <path d="M714.676,396.36L720.828,396.36C722.879,396.36 723.904,397.084 723.904,398.532C723.904,399.525 723.542,400.298 722.818,400.852C722.093,401.405 721.08,401.682 719.778,401.682L708.401,401.682C707.392,401.682 706.591,401.43 705.996,400.925C705.402,400.42 705.105,399.737 705.105,398.874C705.105,398.044 705.651,397.1 706.741,396.042L714.724,388.352L712.015,388.449L711.404,388.449C709.63,388.449 708.743,387.717 708.743,386.252C708.743,385.341 709.093,384.572 709.793,383.945C710.493,383.318 711.347,383.005 712.356,383.005L720.559,383.005C722.822,383.005 723.953,383.965 723.953,385.886C723.953,386.879 723.44,387.88 722.415,388.889L714.676,396.36Z" style="fill:rgb(223,202,21);fill-rule:nonzero;"/>
                <path d="M734.182,396.36L740.335,396.36C742.386,396.36 743.411,397.084 743.411,398.532C743.411,399.525 743.049,400.298 742.325,400.852C741.6,401.405 740.587,401.682 739.285,401.682L727.908,401.682C726.899,401.682 726.097,401.43 725.503,400.925C724.909,400.42 724.612,399.737 724.612,398.874C724.612,398.044 725.157,397.1 726.248,396.042L734.231,388.352L731.521,388.449L730.911,388.449C729.137,388.449 728.25,387.717 728.25,386.252C728.25,385.341 728.6,384.572 729.3,383.945C730,383.318 730.854,383.005 731.863,383.005L740.066,383.005C742.329,383.005 743.46,383.965 743.46,385.886C743.46,386.879 742.947,387.88 741.922,388.889L734.182,396.36Z" style="fill:rgb(223,202,21);fill-rule:nonzero;"/>
            </g>
        </g>
        <g transform="matrix(1.21965,0,0,1.46916,-44.8649,-53.2118)">
            <g transform="matrix(0.5153,0,0,1.1261,-142.221,-249.5)">
                <path d="M676,376.7L666.52,399.997C666.52,399.997 659.691,399.997 659.691,399.997C656.112,399.997 653.293,400.667 651.206,401.873C651.203,401.874 651.2,401.876 651.198,401.878C649.44,402.903 648.043,404.337 647.018,406.189C646.012,408.005 645.507,409.969 645.507,412.082C645.507,415.46 646.724,418.232 649.126,420.413C651.439,422.515 654.349,423.606 657.885,423.606C662.001,423.606 665.673,422.153 668.885,419.21C668.887,419.209 668.888,419.207 668.89,419.206C670.092,418.099 671.07,416.931 671.834,415.71C672.451,414.723 673.282,413.108 674.315,410.862L676.268,410.862C682.372,410.862 686.913,409.778 689.938,407.822C692.296,406.301 694.197,404.274 695.633,401.736C697.089,399.16 697.802,396.527 697.802,393.845C697.802,390.929 697.007,388.568 695.439,386.747C696.453,385.983 697.342,385.075 698.11,384.026C699.742,381.797 700.561,379.284 700.561,376.487C700.561,373.023 699.331,370.386 697.014,368.513C694.895,366.799 691.914,365.842 688.012,365.842L677.44,365.842C675.701,365.842 674.233,366.409 673.021,367.503C671.71,368.685 671.068,370.138 671.068,371.848C671.068,373.499 671.667,374.69 672.63,375.515C673.404,376.179 674.506,376.643 676,376.7ZM679.735,374.192L676.317,374.192C674.494,374.192 673.583,373.41 673.583,371.848C673.583,370.871 673.957,370.045 674.706,369.37C675.455,368.694 676.366,368.357 677.44,368.357L688.012,368.357C691.218,368.357 693.692,369.061 695.433,370.468C697.175,371.876 698.046,373.882 698.046,376.487C698.046,378.733 697.391,380.751 696.08,382.541C694.77,384.332 693.016,385.609 690.819,386.374C693.798,387.823 695.287,390.313 695.287,393.845C695.287,396.107 694.673,398.325 693.444,400.498C692.215,402.671 690.591,404.408 688.573,405.71C685.855,407.468 681.753,408.347 676.268,408.347L672.68,408.347L672.387,409.03C671.247,411.553 670.352,413.335 669.701,414.377C669.05,415.419 668.212,416.412 667.186,417.356C664.468,419.846 661.368,421.091 657.885,421.091C655.036,421.091 652.68,420.245 650.817,418.552C648.953,416.859 648.021,414.703 648.021,412.082C648.021,410.406 648.42,408.847 649.218,407.407C650.015,405.967 651.098,404.848 652.465,404.05C654.239,403.025 656.648,402.512 659.691,402.512L668.212,402.512L679.735,374.192ZM665.844,408.347L659.496,408.347C656.306,408.347 654.711,409.486 654.711,411.765C654.711,412.676 655.057,413.449 655.748,414.084C656.44,414.719 657.282,415.036 658.275,415.036C659.756,415.036 661.164,414.446 662.499,413.266C663.834,412.086 664.948,410.446 665.844,408.347ZM661.367,410.861C661.195,411.046 661.017,411.22 660.833,411.382C660.017,412.104 659.181,412.522 658.275,412.522C657.953,412.522 657.673,412.437 657.449,412.231C657.308,412.102 657.226,411.95 657.226,411.765C657.226,411.394 657.429,411.17 657.792,411.059C658.259,410.916 658.828,410.862 659.496,410.862L661.367,410.861ZM675.072,402.512L677.05,402.512C680.533,402.512 683.178,401.91 684.984,400.705C686.14,399.94 687.08,398.891 687.804,397.556C688.528,396.221 688.891,394.878 688.891,393.528C688.891,391.932 688.414,390.809 687.462,390.158C686.51,389.507 684.854,389.182 682.494,389.182L680.468,389.182L675.072,402.512ZM678.827,399.937L682.163,391.697C682.163,391.697 682.494,391.697 682.494,391.697C684.167,391.697 685.368,391.773 686.043,392.234C686.39,392.472 686.376,392.945 686.376,393.528C686.376,394.478 686.103,395.418 685.594,396.356C685.078,397.307 684.419,398.064 683.596,398.608C683.594,398.61 683.592,398.611 683.589,398.613C682.429,399.386 680.835,399.796 678.827,399.937ZM686.175,375.164C685.843,375.271 685.607,375.897 685.622,376.519L682.836,383.347L684.301,383.322C686.579,383.322 688.305,382.793 689.476,381.736C690.095,381.182 690.612,380.466 691.027,379.587C691.442,378.708 691.649,377.894 691.649,377.146C691.649,375.795 691.055,374.9 689.867,374.46C689.755,374.418 689.615,374.38 689.447,374.348C688.839,373.898 688.854,374.101 687.992,374.21C687.675,374.198 687.323,374.192 686.937,374.192L686.571,374.192L686.175,375.164ZM688.258,376.714L686.72,380.484C687.134,380.34 687.492,380.139 687.791,379.869C687.794,379.866 687.797,379.864 687.8,379.861C688.185,379.517 688.494,379.061 688.753,378.513C688.987,378.018 689.135,377.568 689.135,377.146C689.135,376.997 689.126,376.867 688.995,376.819C688.988,376.816 688.982,376.814 688.975,376.811C688.818,376.752 688.578,376.725 688.258,376.714Z"/>
                <path d="M716.933,393.882L719.084,388.602C719.672,387.131 719.898,386.026 719.898,385.324C719.898,383.98 719.402,382.816 718.367,381.85C717.401,380.949 716.246,380.49 714.893,380.49C712.377,380.49 710.19,381.917 708.78,385.298C708.787,385.191 708.79,385.086 708.79,384.983C708.79,383.6 708.279,382.431 707.242,381.481C706.286,380.605 705.131,380.149 703.761,380.149C701.27,380.149 699.059,381.605 697.625,385.103L694.302,393.265C693.733,394.664 693.482,395.896 693.482,396.946C693.482,399.051 694.229,400.785 695.683,402.164C697.088,403.497 698.845,404.197 700.977,404.197L704.542,404.197C705.679,404.197 706.715,403.961 707.648,403.486C708.453,403.951 709.447,404.197 710.645,404.197L715.016,404.197C716.989,404.197 718.498,403.678 719.596,402.827C720.943,401.782 721.656,400.355 721.656,398.508C721.656,396.758 720.965,395.57 719.885,394.807C719.252,394.359 718.281,393.994 716.933,393.882ZM713.209,396.36L716.041,396.36C717.164,396.36 717.961,396.526 718.433,396.86C718.905,397.194 719.141,397.743 719.141,398.508C719.141,399.501 718.779,400.278 718.055,400.84C717.331,401.401 716.318,401.682 715.016,401.682L710.645,401.682C709.278,401.682 708.367,401.153 707.911,400.095C707.016,401.153 705.893,401.682 704.542,401.682L700.977,401.682C699.545,401.682 698.357,401.234 697.413,400.339C696.469,399.444 695.997,398.313 695.997,396.946C695.997,396.164 696.209,395.253 696.632,394.211L699.952,386.057C700.88,383.794 702.149,382.663 703.761,382.663C704.46,382.663 705.055,382.887 705.543,383.335C706.031,383.782 706.275,384.332 706.275,384.983C706.275,385.471 706.145,386.032 705.885,386.667L705.616,387.326L703.053,393.601L702.784,394.333C702.638,394.756 702.556,395.074 702.54,395.285C702.507,396.018 702.979,396.384 703.956,396.384C705.974,396.384 707.317,395.57 707.984,393.943L711.036,386.423C711.947,384.144 713.233,383.005 714.893,383.005C715.577,383.005 716.163,383.233 716.651,383.689C717.14,384.144 717.384,384.69 717.384,385.324C717.384,385.829 717.172,386.61 716.749,387.668L713.209,396.36Z"/>
                <path d="M723.355,390.49L719.466,394.237C717.725,395.926 717.066,397.549 717.066,398.874C717.066,400.552 717.689,401.861 718.844,402.842C719.847,403.693 721.174,404.197 722.877,404.197L734.254,404.197C736.221,404.197 737.726,403.686 738.82,402.85C740.175,401.815 740.895,400.389 740.895,398.532C740.895,397.224 740.458,396.201 739.716,395.416C738.872,394.521 737.471,393.86 735.377,393.846L738.654,390.681C740.269,389.092 740.943,387.45 740.943,385.886C740.943,384.053 740.288,382.725 739.208,381.808C738.272,381.014 736.906,380.49 735.035,380.49L726.832,380.49C725.159,380.49 723.751,381.033 722.591,382.071C721.324,383.205 720.704,384.603 720.704,386.252C720.704,387.867 721.305,389.032 722.283,389.839C722.587,390.09 722.943,390.312 723.355,390.49ZM729.151,396.36L735.304,396.36C737.354,396.36 738.38,397.084 738.38,398.532C738.38,399.525 738.018,400.298 737.293,400.852C736.569,401.405 735.556,401.682 734.254,401.682L722.877,401.682C721.868,401.682 721.066,401.43 720.472,400.925C719.878,400.42 719.581,399.737 719.581,398.874C719.581,398.044 720.126,397.1 721.217,396.042L729.2,388.352L726.49,388.449L725.88,388.449C724.106,388.449 723.219,387.717 723.219,386.252C723.219,385.341 723.569,384.572 724.268,383.945C724.968,383.318 725.823,383.005 726.832,383.005L735.035,383.005C737.297,383.005 738.429,383.965 738.429,385.886C738.429,386.879 737.916,387.88 736.891,388.889L729.151,396.36Z"/>
                <path d="M742.862,390.49L738.972,394.237C737.232,395.926 736.573,397.549 736.573,398.874C736.573,400.552 737.196,401.861 738.351,402.842C739.353,403.693 740.681,404.197 742.384,404.197L753.761,404.197C755.728,404.197 757.233,403.686 758.327,402.85C759.682,401.815 760.401,400.389 760.401,398.532C760.401,397.224 759.964,396.201 759.223,395.416C758.379,394.521 756.978,393.86 754.883,393.846L758.161,390.681C759.776,389.092 760.45,387.45 760.45,385.886C760.45,384.053 759.794,382.725 758.715,381.808C757.779,381.014 756.413,380.49 754.542,380.49L746.339,380.49C744.666,380.49 743.258,381.033 742.098,382.071C740.831,383.205 740.211,384.603 740.211,386.252C740.211,387.867 740.811,389.032 741.79,389.839C742.094,390.09 742.45,390.312 742.862,390.49ZM748.658,396.36L754.81,396.36C756.861,396.36 757.887,397.084 757.887,398.532C757.887,399.525 757.524,400.298 756.8,400.852C756.076,401.405 755.063,401.682 753.761,401.682L742.384,401.682C741.375,401.682 740.573,401.43 739.979,400.925C739.385,400.42 739.088,399.737 739.088,398.874C739.088,398.044 739.633,397.1 740.724,396.042L748.707,388.352L745.997,388.449L745.387,388.449C743.613,388.449 742.725,387.717 742.725,386.252C742.725,385.341 743.075,384.572 743.775,383.945C744.475,383.318 745.33,383.005 746.339,383.005L754.542,383.005C756.804,383.005 757.935,383.965 757.935,385.886C757.935,386.879 757.423,387.88 756.397,388.889L748.658,396.36Z"/>
            </g>
            <g transform="matrix(0.5153,0,0,1.1261,-142.221,-249.5)">
                <path d="M679.735,374.192L676.317,374.192C674.494,374.192 673.583,373.41 673.583,371.848C673.583,370.871 673.957,370.045 674.706,369.37C675.455,368.694 676.366,368.357 677.44,368.357L688.012,368.357C691.218,368.357 693.692,369.061 695.433,370.468C697.175,371.876 698.046,373.882 698.046,376.487C698.046,378.733 697.391,380.751 696.08,382.541C694.77,384.332 693.016,385.609 690.819,386.374C693.798,387.823 695.287,390.313 695.287,393.845C695.287,396.107 694.673,398.325 693.444,400.498C692.215,402.671 690.591,404.408 688.573,405.71C685.855,407.468 681.753,408.347 676.268,408.347L672.68,408.347L672.387,409.03C671.247,411.553 670.352,413.335 669.701,414.377C669.05,415.419 668.212,416.412 667.186,417.356C664.468,419.846 661.368,421.091 657.885,421.091C655.036,421.091 652.68,420.245 650.817,418.552C648.953,416.859 648.021,414.703 648.021,412.082C648.021,410.406 648.42,408.847 649.218,407.407C650.015,405.967 651.098,404.848 652.465,404.05C654.239,403.025 656.648,402.512 659.691,402.512L668.212,402.512L679.735,374.192ZM682.836,383.347L684.301,383.322C686.579,383.322 688.305,382.793 689.476,381.736C690.095,381.182 690.612,380.466 691.027,379.587C691.442,378.708 691.649,377.894 691.649,377.146C691.649,375.795 691.055,374.9 689.867,374.46C689.395,374.281 688.418,374.192 686.937,374.192L686.571,374.192L682.836,383.347ZM675.072,402.512L677.05,402.512C680.533,402.512 683.178,401.91 684.984,400.705C686.14,399.94 687.08,398.891 687.804,397.556C688.528,396.221 688.891,394.878 688.891,393.528C688.891,391.932 688.414,390.809 687.462,390.158C686.51,389.507 684.854,389.182 682.494,389.182L680.468,389.182L675.072,402.512ZM665.844,408.347L659.496,408.347C656.306,408.347 654.711,409.486 654.711,411.765C654.711,412.676 655.057,413.449 655.748,414.084C656.44,414.719 657.282,415.036 658.275,415.036C659.756,415.036 661.164,414.446 662.499,413.266C663.834,412.086 664.948,410.446 665.844,408.347Z" style="fill:rgb(223,202,21);fill-rule:nonzero;"/>
            </g>
            <g transform="matrix(0.5153,0,0,1.1261,-142.221,-249.5)">
                <path d="M713.209,396.36L716.041,396.36C717.164,396.36 717.961,396.526 718.433,396.86C718.905,397.194 719.141,397.743 719.141,398.508C719.141,399.501 718.779,400.278 718.055,400.84C717.331,401.401 716.318,401.682 715.016,401.682L710.645,401.682C709.278,401.682 708.367,401.153 707.911,400.095C707.016,401.153 705.893,401.682 704.542,401.682L700.977,401.682C699.545,401.682 698.357,401.234 697.413,400.339C696.469,399.444 695.997,398.313 695.997,396.946C695.997,396.164 696.209,395.253 696.632,394.211L699.952,386.057C700.88,383.794 702.149,382.663 703.761,382.663C704.46,382.663 705.055,382.887 705.543,383.335C706.031,383.782 706.275,384.332 706.275,384.983C706.275,385.471 706.145,386.032 705.885,386.667L705.616,387.326L703.053,393.601L702.784,394.333C702.638,394.756 702.556,395.074 702.54,395.285C702.507,396.018 702.979,396.384 703.956,396.384C705.974,396.384 707.317,395.57 707.984,393.943L711.036,386.423C711.947,384.144 713.233,383.005 714.893,383.005C715.577,383.005 716.163,383.233 716.651,383.689C717.14,384.144 717.384,384.69 717.384,385.324C717.384,385.829 717.172,386.61 716.749,387.668L713.209,396.36Z" style="fill:rgb(223,202,21);fill-rule:nonzero;"/>
            </g>
            <g transform="matrix(0.5153,0,0,1.1261,-142.221,-249.5)">
                <path d="M729.151,396.36L735.304,396.36C737.354,396.36 738.38,397.084 738.38,398.532C738.38,399.525 738.018,400.298 737.293,400.852C736.569,401.405 735.556,401.682 734.254,401.682L722.877,401.682C721.868,401.682 721.066,401.43 720.472,400.925C719.878,400.42 719.581,399.737 719.581,398.874C719.581,398.044 720.126,397.1 721.217,396.042L729.2,388.352L726.49,388.449L725.88,388.449C724.106,388.449 723.219,387.717 723.219,386.252C723.219,385.341 723.569,384.572 724.268,383.945C724.968,383.318 725.823,383.005 726.832,383.005L735.035,383.005C737.297,383.005 738.429,383.965 738.429,385.886C738.429,386.879 737.916,387.88 736.891,388.889L729.151,396.36Z" style="fill:rgb(223,202,21);fill-rule:nonzero;"/>
            </g>
            <g transform="matrix(0.5153,0,0,1.1261,-142.221,-249.5)">
                <path d="M748.658,396.36L754.81,396.36C756.861,396.36 757.887,397.084 757.887,398.532C757.887,399.525 757.524,400.298 756.8,400.852C756.076,401.405 755.063,401.682 753.761,401.682L742.384,401.682C741.375,401.682 740.573,401.43 739.979,400.925C739.385,400.42 739.088,399.737 739.088,398.874C739.088,398.044 739.633,397.1 740.724,396.042L748.707,388.352L745.997,388.449L745.387,388.449C743.613,388.449 742.725,387.717 742.725,386.252C742.725,385.341 743.075,384.572 743.775,383.945C744.475,383.318 745.33,383.005 746.339,383.005L754.542,383.005C756.804,383.005 757.935,383.965 757.935,385.886C757.935,386.879 757.423,387.88 756.397,388.889L748.658,396.36Z" style="fill:rgb(223,202,21);fill-rule:nonzero;"/>
            </g>
        </g>
    </g>
</svg>
