<?xml version="1.0" encoding="UTF-8" standalone="no"?>
<!DOCTYPE svg PUBLIC "-//W3C//DTD SVG 1.1//EN" "http://www.w3.org/Graphics/SVG/1.1/DTD/svg11.dtd">
<svg width="100%" height="100%" viewBox="0 0 3225 2398" version="1.1" xmlns="http://www.w3.org/2000/svg" xmlns:xlink="http://www.w3.org/1999/xlink" xml:space="preserve" xmlns:serif="http://www.serif.com/" style="fill-rule:evenodd;clip-rule:evenodd;stroke-linejoin:round;stroke-miterlimit:2;">
    <g id="Artboard1" transform="matrix(1,0,0,0.979866,-189.655,-540.846)">
        <rect x="189.655" y="551.959" width="3224.85" height="2446.72" style="fill:none;"/>
        <clipPath id="_clip1">
            <rect x="189.655" y="551.959" width="3224.85" height="2446.72"/>
        </clipPath>
        <g clip-path="url(#_clip1)">
            <g transform="matrix(4.16667,0,0,4.25228,1624.18,1781.32)">
                <g id="Layer-1" serif:id="Layer 1">
                    <path d="M0,-2.336C0,-108.222 -59.95,-162.722 -151.822,-162.722L-207.879,-162.722L-207.879,160.386L-151.822,160.386C-57.647,160.386 0,104.328 0,-2.336M138.326,41.945C135.114,69.293 128.821,94.564 119.705,117.564C103.225,159.25 77.5,193.572 43.86,219.557C-4.575,257.026 -69.391,277.171 -146.372,277.171L-344.129,277.171L-344.129,-279.508L-146.372,-279.508C-63.746,-279.508 4.866,-256.831 54.24,-214.432C36.527,-186.857 26.665,-154.255 26.665,-118.343C26.665,-66.276 47.2,-24.201 89.438,10.251C104.556,22.578 121.197,32.927 138.326,41.945M429.836,113.671C429.836,119.64 429.544,125.545 428.96,131.384C428.408,136.801 427.63,142.154 426.592,147.442C411.41,224.975 343.415,286.514 233.636,286.514C149.096,286.514 88.919,253.327 56.965,229.841C62.934,225.104 68.676,220.076 74.191,214.788C99.69,190.296 119.543,160.71 133.427,126.875C158.406,142.868 195.68,161.164 235.194,161.164C258.161,161.164 282.686,153.865 290.764,132.811L290.796,132.811C292.581,128.172 293.586,122.852 293.586,116.786C293.586,81.458 222.217,65.659 155.616,32.57C150.361,29.975 145.106,27.25 139.948,24.395C88.011,-4.282 42.885,-45.676 42.885,-118.343C42.885,-150.427 51.32,-179.104 66.276,-203.37C69.13,-208.009 72.245,-212.518 75.618,-216.832C110.557,-262.152 170.442,-288.85 239.865,-288.85C359.765,-288.85 418.936,-225.786 418.936,-225.786L361.322,-114.45C361.322,-114.45 305.265,-163.5 238.308,-163.5C210.279,-163.5 179.136,-151.043 179.136,-119.9C179.135,-49.829 429.836,-62.286 429.836,113.671" style="fill:rgb(230,100,99);fill-rule:nonzero;"/>
                </g>
            </g>
        </g>
    </g>
</svg>
