<?xml version="1.0" encoding="UTF-8" standalone="no"?>
<!DOCTYPE svg PUBLIC "-//W3C//DTD SVG 1.1//EN" "http://www.w3.org/Graphics/SVG/1.1/DTD/svg11.dtd">
<svg width="100%" height="100%" viewBox="0 0 300 300" version="1.1" xmlns="http://www.w3.org/2000/svg" xmlns:xlink="http://www.w3.org/1999/xlink" xml:space="preserve" xmlns:serif="http://www.serif.com/" style="fill-rule:evenodd;clip-rule:evenodd;stroke-linejoin:round;stroke-miterlimit:2;">
    <g id="Layer-1" serif:id="Layer 1">
        <g transform="matrix(1,0,0,1,260,0)">
            <path d="M0,300L-220,300C-242.091,300 -260,282.091 -260,260L-260,40C-260,17.909 -242.091,0 -220,0L0,0C22.091,0 40,17.909 40,40L40,260C40,282.091 22.091,300 0,300" style="fill:rgb(229,99,99);fill-rule:nonzero;"/>
        </g>
        <g transform="matrix(1,0,0,1,139.967,149.946)">
            <path d="M0,-0.72C0,-33.364 -18.482,-50.166 -46.806,-50.166L-64.088,-50.166L-64.088,49.446L-46.806,49.446C-17.772,49.446 0,32.164 0,-0.72M42.645,12.932C41.655,21.363 39.715,29.154 36.904,36.245C31.824,49.096 23.893,59.677 13.522,67.688C-1.41,79.24 -21.393,85.451 -45.126,85.451L-106.093,85.451L-106.093,-86.171L-45.126,-86.171C-19.653,-86.171 1.5,-79.18 16.722,-66.108C11.261,-57.607 8.221,-47.556 8.221,-36.484C8.221,-20.432 14.552,-7.461 27.573,3.16C32.234,6.961 37.364,10.151 42.645,12.932M132.516,35.044C132.516,36.885 132.426,38.705 132.246,40.505C132.076,42.175 131.836,43.826 131.516,45.456C126.836,69.359 105.873,88.331 72.029,88.331C45.966,88.331 27.413,78.1 17.562,70.859C19.402,69.399 21.173,67.848 22.873,66.218C30.734,58.667 36.854,49.546 41.135,39.115C48.836,44.046 60.327,49.686 72.509,49.686C79.59,49.686 87.151,47.436 89.641,40.945L89.651,40.945C90.201,39.515 90.511,37.875 90.511,36.005C90.511,25.113 68.508,20.243 47.976,10.041C46.356,9.241 44.736,8.401 43.145,7.521C27.133,-1.32 13.221,-14.082 13.221,-36.484C13.221,-46.376 15.822,-55.217 20.432,-62.698C21.312,-64.128 22.273,-65.518 23.313,-66.848C34.084,-80.82 52.546,-89.051 73.949,-89.051C110.914,-89.051 129.156,-69.608 129.156,-69.608L111.394,-35.284C111.394,-35.284 94.112,-50.406 73.469,-50.406C64.828,-50.406 55.227,-46.566 55.227,-36.964C55.227,-15.362 132.516,-19.202 132.516,35.044" style="fill:white;fill-rule:nonzero;"/>
        </g>
    </g>
</svg>
